<svg id="Layer_1" data-name="Layer 1" xmlns="http://www.w3.org/2000/svg" xmlns:xlink="http://www.w3.org/1999/xlink" viewBox="0 0 1024 1024"><defs><style>.cls-1{fill:#161616;}.cls-2{fill:url(#linear-gradient);}.cls-3{fill:url(#linear-gradient-2);}.cls-4{fill:url(#linear-gradient-3);}.cls-5{fill:url(#linear-gradient-4);}.cls-6{fill:#f5c616;}</style><linearGradient id="linear-gradient" x1="189.62" y1="338.84" x2="299.14" y2="675.61" gradientUnits="userSpaceOnUse"><stop offset="0" stop-color="#d3dddc"/><stop offset="0.15" stop-color="#eff8fa"/></linearGradient><linearGradient id="linear-gradient-2" x1="832.07" y1="399.25" x2="663.53" y2="710.71" xlink:href="#linear-gradient"/><linearGradient id="linear-gradient-3" x1="321.21" y1="468.26" x2="702.8" y2="468.26" xlink:href="#linear-gradient"/><linearGradient id="linear-gradient-4" x1="453.67" y1="359.82" x2="573.09" y2="359.82" xlink:href="#linear-gradient"/></defs><rect class="cls-1" width="1024" height="1024"/><path class="cls-2" d="M465.09,809.45,429.44,802A401.14,401.14,0,0,1,180.26,184.06L200.76,154,238,246.31ZM192.8,238.26a360.44,360.44,0,0,0-42.94,171.2c0,157.77,103.54,297.18,251,344.75L201.92,260.86Z"/><path class="cls-3" d="M558.91,809.46,823.24,154l20.5,30.11A401.16,401.16,0,0,1,594.56,802ZM831.2,238.26l-9.12,22.61L623.14,754.22c147.46-47.57,251-187,251-344.76A360.44,360.44,0,0,0,831.2,238.26Z"/><path class="cls-4" d="M512,728.68l-190.8-473.1,16.37-7.93a401.93,401.93,0,0,1,348.85,0l16.37,7.93ZM371.07,275.18,512,624.65,652.94,275.18a363.42,363.42,0,0,0-281.87,0Z"/><path class="cls-5" d="M513.38,419.53a59.71,59.71,0,1,1,59.71-59.71A59.78,59.78,0,0,1,513.38,419.53Zm0-80.51a20.8,20.8,0,1,0,20.8,20.8A20.82,20.82,0,0,0,513.38,339Z"/><path class="cls-6" d="M870.34,101.79l-157.17,24L512,624.64l-201.25-499-157-24-.5,22.12a74.81,74.81,0,0,0,5.45,29.9l282,699.22a75.66,75.66,0,0,0,69.61,47.4h3.52a75.67,75.67,0,0,0,69.62-47.4l282-699.22A74.87,74.87,0,0,0,870.79,124ZM544.76,838.89a36.69,36.69,0,0,1-20.08,19.79,36,36,0,0,1-13,2.65h-.95a36.83,36.83,0,0,1-34-23L198.27,147.77,283,160.71,328,272.45,494,684l51.13,126.76A36.59,36.59,0,0,1,544.76,838.89ZM786,246.31,572.72,775.21,533,676.65l163-404.2L741,160.9,825.66,148Z"/></svg>