<svg id="Layer_1" data-name="Layer 1" xmlns="http://www.w3.org/2000/svg" xmlns:xlink="http://www.w3.org/1999/xlink" viewBox="0 0 32 32"><defs><style>.cls-1{fill:#161616;}.cls-2{fill:url(#linear-gradient);}.cls-3{fill:url(#linear-gradient-2);}.cls-4{fill:url(#linear-gradient-3);}.cls-5{fill:url(#linear-gradient-4);}.cls-6{fill:#f5c616;}</style><linearGradient id="linear-gradient" x1="4.29" y1="11.28" x2="8.27" y2="23.52" gradientUnits="userSpaceOnUse"><stop offset="0" stop-color="#d3dddc"/><stop offset="0.15" stop-color="#eff8fa"/></linearGradient><linearGradient id="linear-gradient-2" x1="27.63" y1="13.48" x2="21.51" y2="24.79" xlink:href="#linear-gradient"/><linearGradient id="linear-gradient-3" x1="9.07" y1="15.98" x2="22.93" y2="15.98" xlink:href="#linear-gradient"/><linearGradient id="linear-gradient-4" x1="13.88" y1="12.04" x2="18.22" y2="12.04" xlink:href="#linear-gradient"/></defs><rect class="cls-1" x="-0.02" y="0.02" width="32.04" height="32.04" rx="8.23"/><path class="cls-2" d="M14.3,28.38,13,28.11a14.56,14.56,0,0,1-8.26-5,14.52,14.52,0,0,1-3.31-9.24A14.47,14.47,0,0,1,4,5.66l.74-1.1L6,7.92ZM4.4,7.63A13.16,13.16,0,0,0,12,26.37L4.73,8.45Z"/><path class="cls-3" d="M17.7,28.38,27.31,4.56l.74,1.1a14.58,14.58,0,0,1,1.64,13.18,14.26,14.26,0,0,1-2.43,4.25,14.56,14.56,0,0,1-8.26,5ZM27.6,7.63l-.33.82L20,26.38A13.17,13.17,0,0,0,27.6,7.63Z"/><path class="cls-4" d="M16,25.45,9.07,8.26,9.66,8A14.59,14.59,0,0,1,22.34,8l.59.29ZM10.88,9,16,21.67,21.12,9A13.24,13.24,0,0,0,10.88,9Z"/><path class="cls-5" d="M16.05,14.21A2.17,2.17,0,1,1,18.22,12,2.17,2.17,0,0,1,16.05,14.21Zm0-2.92a.76.76,0,1,0,.76.75A.76.76,0,0,0,16.05,11.29Z"/><path class="cls-6" d="M29,2.67l-5.71.87L16,21.67,8.69,3.53,3,2.66l0,.81a2.87,2.87,0,0,0,.2,1.08L13.41,30a2.74,2.74,0,0,0,2.53,1.72h.12A2.74,2.74,0,0,0,18.59,30L28.84,4.55A2.82,2.82,0,0,0,29,3.48ZM17.19,29.45a1.32,1.32,0,0,1-.73.72,1.52,1.52,0,0,1-.47.1h0a1.35,1.35,0,0,1-1.23-.84L4.6,4.34l3.08.47L9.31,8.87l6,15,1.86,4.61A1.34,1.34,0,0,1,17.19,29.45ZM26,7.92,18.21,27.14l-1.45-3.58L22.69,8.87l1.63-4,3.08-.47Z"/></svg>